<svg version="1" xmlns="http://www.w3.org/2000/svg" width="1333.333" height="1333.333" viewBox="0 0 1000.000000 1000.000000"><path d="M10.5 481.7c.2 95.8 0 92.7 5.4 104.9 2.8 6.1 9.4 12.8 15.4 15.5 4.6 2.1 7 2.4 22 2.7l16.8.4-.3-7.3-.3-7.3-13.1-3.1c-7.2-1.7-14.7-4-16.5-5.1-4.4-2.6-7.7-8.6-8.7-16-.4-3.2-.8-43.6-.7-89.6V393H10.2l.3 88.7zM684.8 408.2c-1 1-1.8 2.3-1.8 3 0 1-19.8 55.5-23.5 64.8-1.3 3.3-31 84-38 103.5-1.8 4.9-4.7 12.7-6.3 17.2l-3.1 8.3h24.8l8.6-26.4c4.7-14.5 8.5-26.9 8.5-27.5 0-1.3-3.6-1.2 41.8-1.3 20.5-.1 37.5.1 37.8.5.3.3 4.3 12.6 8.8 27.4l8.3 26.8 12.1.3 12.2.3-2.5-6.8c-1.3-3.7-6.8-19.2-12-34.3-13.2-37.6-16.3-46.4-19-54-1.3-3.6-4.2-11.9-6.5-18.5s-5.4-15.6-7-20c-4.3-12.2-9.2-26.2-16.1-46-3.5-9.9-6.4-18.2-6.5-18.3-.1-.2-4.4-.5-9.5-.6-7.8-.2-9.6.1-11.1 1.6zm13.9 40c3.8 11.3 12.9 37.8 21.6 62.8l6.4 18.6h-64.5l5.5-15.6c3-8.5 5.9-16.6 6.3-18 .5-1.4 2.6-7.5 4.8-13.5 2.2-6.1 6.5-18.3 9.7-27.3 3.2-8.9 6-16.2 6.4-16.2.4 0 2.1 4.2 3.8 9.2zM933.5 421c-.5 1-1.4 6.6-2 12.7-.3 3.4-.8 7.1-1 8.3-.2 1.2-.7 4.7-1 7.8-.3 3.1-.8 6.6-1 7.7-.2 1.1-.4 2.3-.4 2.6-.1.4-4.5 1.4-9.8 2.4-5.4.9-11.4 2.1-13.3 2.6l-3.6.9-.1 7.5v7.5h13.3c10 0 13.4.3 13.4 1.2.1.7.2 20.4.4 43.8.2 35.4.5 43.6 1.9 49.2 2.4 9.6 5.5 15.6 10.7 20.9 6.8 6.8 11.3 8.1 30.8 8.6l16.2.4v-14.6l-13.8-3.3c-8.2-2-15.2-4.2-17-5.5-3.7-2.6-6.6-7.7-7.8-13.2-.4-2.2-.8-22.8-.9-45.7l-.2-41.8 21.1-.2 21.1-.3v-19l-21-.5-21-.5v-19.2c-.1-10.6-.4-19.5-.7-19.9-.8-.8-13.8-1.2-14.3-.4zM148.8 458.5c-.2.1-5.2.5-11.3.9-9.9.5-15.9 1.2-29.1 3.1-2.2.4-7.1 1.4-10.9 2.4l-7 1.7-.1 7.3-.1 7.2 11.6-.7c6.4-.4 13.4-.8 15.6-1 2.2-.2 14-.6 26.2-.9 23.9-.6 26.8-.2 32.1 4.8 4.7 4.4 5.6 7.4 6 21.4.4 10.8.2 13.3-.9 13.4h-31.4c-16.5 0-32.7.5-35.9 1-12.8 2.2-22 10-25.6 21.8-2.6 8.4-3 33.8-.6 41.6 6.3 20.5 26.3 28.4 54.1 21.4 6.7-1.7 20.5-6.9 30.4-11.5 8.9-4.2 11.1-4.6 11.1-2.2 0 .6.9 4.2 2 7.9l2.1 6.9H202l.1-8.3c.3-63.9-.2-104.4-1.6-110.3-3-13.1-11.9-22.2-26-26.5-3.2-1-24.8-2.2-25.7-1.4zm33.2 95v19.4l-9.7 3.1c-12.7 4.1-30.3 8.4-38.8 9.5-10.8 1.5-15.6 1.2-19.8-.9-6-3-7.1-6-7.5-19.6-.4-13.2.5-17.5 5-21.8 3.6-3.6 8.5-4.8 22.3-5.7 5-.3 11.7-.8 15-1 3.3-.3 10.3-.7 15.5-1.1 5.2-.4 9.6-.7 9.7-.8.1 0 2-.2 4.2-.3l4.1-.3v19.5zM532.8 458.5c-.2.1-5.2.5-11.3.9-9.9.5-15.9 1.2-29.1 3.1-2.2.4-7.1 1.4-10.9 2.4l-7 1.7-.1 7.3-.1 7.2 11.6-.7c6.4-.4 13.4-.8 15.6-1 2.2-.2 14-.6 26.2-.9 23.9-.6 26.8-.2 32.1 4.8 4.7 4.4 5.6 7.4 6 21.4.2 7.3 0 13.3-.4 13.4H534c-16.8 0-33.2.5-36.4 1-12.8 2.2-22 10-25.6 21.8-1.6 5.1-2 9.3-2.1 21.5 0 16.8 1.1 22.2 6 29.7 12.3 18.5 39.4 18.9 78.1 1.1 11-5.1 12-5.4 12.5-3.9.2.6 1.3 4.5 2.5 8.4l2.1 7.3H586v-26.3c.1-77.9 0-85.9-1.5-92.3-3-13.1-11.9-22.2-26-26.5-3.2-1-24.8-2.2-25.7-1.4zm33.2 95v19.4l-11 3.5c-17.4 5.5-35.4 9.3-47.9 10-6.5.4-12.9-2.5-15.1-6.9-1.9-3.8-2.6-24.4-1.1-29.6 2.6-8.5 8.6-11.3 26.6-12.4 5-.3 11.5-.8 14.5-1 3-.2 10-.7 15.5-1.1 5.5-.3 10.1-.7 10.2-.8.1 0 2-.2 4.2-.3l4.1-.3v19.5zM294.5 459.7c-9.7 1.8-22 6.8-34.3 14-4 2.4-7.4 4.3-7.7 4.3-.2 0-1.6-3.8-3.2-8.5l-2.7-8.6-7.1.3-7 .3-.1 71.8-.2 71.8 10.1-.3 10.1-.3.1-54.9v-55l10.4-4.9c16.5-7.7 36.5-11.9 46.1-9.4 10.6 2.6 16.8 9.2 18.5 19.5.4 2.4.7 27 .7 54.8V605h9.9c7.2 0 9.9-.3 10-1.3.1-.6.2-25.5.2-55.2l.2-54 7.3-4.1c13.1-7.5 27.5-10.9 44.8-10.7 10.6.1 18.5 5.1 22.8 14.3 2 4.4 2.1 6.1 2.3 57 .1 28.9.2 52.8.2 53.2.1.5 4.6.8 10.1.8h10v-52.3c-.1-30.3-.5-54.4-1.1-57.6-1.6-8.4-5.7-16-12.4-22.7-9.4-9.4-19.3-13.2-33.5-12.8-13.8.3-23.9 2.8-36.5 8.9-4.9 2.4-11.2 6-13.8 8-2.7 2.1-5.2 3.3-5.6 2.9-.4-.5-2-2.6-3.5-4.8-3.8-5.1-12.9-10.9-20.8-13.1-5.8-1.6-19.5-2.6-24.3-1.8zM865.8 459.5c-.2.2-2.4.5-4.9.8-9.6 1.1-23.4 6.7-36.9 14.9-4.7 2.9-6.6 3.6-6.9 2.6-.3-.7-1.6-4.7-3-8.8l-2.6-7.5-7.2-.3-7.2-.3V533l-.1 72h9.9c7 0 10-.4 10.3-1.3.2-.6.3-25 .3-54-.1-36.1.2-53.2.9-54.1 1.9-2.1 21.1-10.5 29.8-12.8 7.1-2 10.8-2.3 25.6-2.3H891V461.2l-4.1-.7c-4.1-.7-20.6-1.5-21.1-1z"/></svg>